<?xml version="1.0" standalone="no"?>
<!DOCTYPE svg PUBLIC "-//W3C//DTD SVG 20010904//EN"
 "http://www.w3.org/TR/2001/REC-SVG-20010904/DTD/svg10.dtd">
<svg version="1.0" xmlns="http://www.w3.org/2000/svg"
 width="70.000000pt" height="70.000000pt" viewBox="0 0 70.000000 70.000000"
 preserveAspectRatio="xMidYMid meet">
<metadata>
Created by potrace 1.11, written by Peter Selinger 2001-2013
</metadata>
<g transform="translate(0.000000,70.000000) scale(0.100000,-0.100000)"
fill="#000000" stroke="none">
<path d="M565 603 c-51 -27 -108 -66 -135 -93 -58 -57 -99 -144 -94 -194 1
-14 1 -26 -1 -26 -3 0 -32 18 -65 39 -62 40 -205 105 -220 99 -22 -8 41 -129
95 -183 58 -59 200 -142 227 -133 5 2 -6 19 -24 39 -65 69 -93 103 -73 89 11
-8 39 -35 62 -60 38 -41 57 -47 58 -17 2 35 28 127 41 143 14 18 14 18 4 -4
-11 -22 -13 -37 -25 -140 -5 -42 -5 -43 17 -36 104 32 181 121 204 234 10 49
11 211 1 217 -4 2 -5 8 -2 12 2 5 -1 15 -8 24 -11 14 -17 13 -62 -10z m-315
-343 c0 -5 -2 -10 -4 -10 -3 0 -8 5 -11 10 -3 6 -1 10 4 10 6 0 11 -4 11 -10z"/>
</g>
</svg>
